:SAMPLES-PER-SECOND 30
:FULLY-SPECIFIED
:DEGREES
214
root  -0.537224 35.8851 4.81264 -129.681 -79.9271 131.072
RightUpLeg  -36.1251 8.18391 2.98164
RightLeg  52.526 -9.64676 -13.5629
RightFoot  -9.28142 0.0496016 -5.94994
RightToes  7.56698e-010 0 -3.6325e-017
Spine  7.97018 -3.66887 -5.92466
Spine1  2.64053 -5.33797 3.88476
HEad  -24.2619 17.6524 -13.1823
LeftShoulder1  1.99896 -4.56788 -18.1781
LeftArm  -24.5554 -6.26287 -43.9168
LeftForeArm  157.682 -44.3571 -169.334
LeftHand  -0.0515529 5.10036 17.3186
RightShoulder  2.01462 3.63909 21.974
RightArm  -34.6588 -15.7261 43.3005
RightForeArm  121.284 75.6047 133.096
RightHand  -1.05547 3.19227 -14.4662
LeftUpLeg  19.0763 1.09748 -10.8698
LeftLeg  20.2538 -13.182 -2.1474
LeftFoot  -24.5007 0.744941 5.30936
LeftToes  -3.13779e-010 -2.47553e-011 -5.36621e-011
215
root  -0.493246 36.7996 4.76413 -130.575 -81.2873 132.382
RightUpLeg  -34.0502 4.71342 4.27959
RightLeg  46.9187 -9.27599 -10.7692
RightFoot  -4.19441 0.430204 -7.08864
RightToes  7.56698e-010 0 -3.6325e-017
Spine  8.53012 -3.29229 -6.69307
Spine1  2.14376 -5.40508 6.59885
HEad  -24.5131 17.8494 -14.0986
LeftShoulder1  2.17354 -4.96201 -19.171
LeftArm  -20.0264 -0.081408 -46.3956
LeftForeArm  157.487 -54.7883 -164.909
LeftHand  -0.181546 4.21357 16.9942
RightShoulder  2.02861 3.68867 21.9747
RightArm  -34.5686 -9.97915 45.4858
RightForeArm  68.9846 78.6249 78.973
RightHand  -1.29912 4.3321 -15.6525
LeftUpLeg  16.9989 -1.96582 -10.6161
LeftLeg  21.228 -9.36414 -1.6502
LeftFoot  -17.4295 0.246915 1.22037
LeftToes  -3.13779e-010 -2.47553e-011 -5.36621e-011
216
root  -0.194013 38.4403 4.50834 -124.896 -83.6818 126.92
RightUpLeg  -28.891 1.09564 5.3121
RightLeg  34.7715 -8.13157 -6.42388
RightFoot  5.04391 0.938487 -6.50105
RightToes  7.56698e-010 0 -3.6325e-017
Spine  10.33 -3.2709 -7.01827
Spine1  0.979054 -5.50781 8.01532
HEad  -23.525 16.9863 -11.8811
LeftShoulder1  2.25413 -5.50292 -18.4817
LeftArm  -16.1626 5.69028 -50.8161
LeftForeArm  131.775 -72.4717 -139.68
LeftHand  -0.676334 1.26992 18.8807
RightShoulder  2.03157 3.78405 21.622
RightArm  -33.8621 -3.55475 49.6889
RightForeArm  15.4794 64.2186 22.7147
RightHand  -1.90704 6.83928 -18.2525
LeftUpLeg  11.4032 -7.02036 -8.89947
LeftLeg  26.1013 -7.63407 -3.91848
LeftFoot  -2.25521 0.333515 -4.31225
LeftToes  -3.13779e-010 -2.47553e-011 -5.36621e-011
217
root  0.111388 40.07 4.29348 -127.658 -85.6364 129.758
RightUpLeg  -22.1613 -0.709418 5.85649
RightLeg  20.1556 -3.7088 -1.60699
RightFoot  14.1131 0.321566 -1.08875
RightToes  7.56698e-010 0 -3.6325e-017
Spine  12.0297 -2.30769 -3.84255
Spine1  0.084286 -3.65186 5.35039
HEad  -20.5767 12.8943 -7.33544
LeftShoulder1  2.31836 -6.14197 -17.3932
LeftArm  -12.7538 5.31358 -54.333
LeftForeArm  30.3825 -72.4211 -38.5196
LeftHand  -1.39355 -1.85628 22.2425
RightShoulder  2.05251 4.00058 21.0615
RightArm  -31.7942 1.64159 52.0231
RightForeArm  4.73674 43.27 9.76765
RightHand  -2.55033 8.92495 -20.8164
LeftUpLeg  3.3682 -5.9562 -5.88034
LeftLeg  33.6804 -4.55543 -2.69948
LeftFoot  13.56 0.882477 -4.60629
LeftToes  -3.13779e-010 -2.47553e-011 -5.36621e-011
218
root  0.198185 41.313 4.12843 -143.859 -86.3529 146.16
RightUpLeg  -16.2752 -0.627736 5.22361
RightLeg  10.5225 0.373807 0.63867
RightFoot  17.8556 -1.37965 5.92718
RightToes  7.56698e-010 0 -3.6325e-017
Spine  12.8409 -0.38482 0.878646
Spine1  -0.519625 -0.284899 0.342916
HEad  -16.8676 6.39667 -3.08836
LeftShoulder1  2.4811 -6.56486 -18.054
LeftArm  -5.50316 -0.410082 -55.203
LeftForeArm  1.67314 -43.9041 -9.2036
LeftHand  -1.8805 -2.72359 26.8816
RightShoulder  2.13262 4.50999 20.2652
RightArm  -26.0127 5.01761 52.2387
RightForeArm  0.470003 28.3651 6.01316
RightHand  -2.88487 9.6058 -22.4055
LeftUpLeg  -5.18438 -3.63625 -4.03003
LeftLeg  41.1649 5.31257 5.35933
LeftFoot  21.1499 0.362623 -1.62277
LeftToes  -3.13779e-010 -2.47553e-011 -5.36621e-011
219
root  0.09093 42.2503 3.88351 -145.31 -87.0418 147.549
RightUpLeg  -11.4069 -0.645212 4.21289
RightLeg  9.26448 0.559777 0.404644
RightFoot  14.1503 -1.78288 8.23359
RightToes  7.56698e-010 0 -3.6325e-017
Spine  13.2258 1.15828 4.49933
Spine1  -0.612072 2.4673 -4.28136
HEad  -14.1711 0.112713 0.064707
LeftShoulder1  2.7271 -6.7552 -20.1446
LeftArm  0.0188748 -6.19257 -53.7118
LeftForeArm  -2.80988 -20.8452 -6.21162
LeftHand  -1.72426 -0.997622 30.9131
RightShoulder  2.18298 4.93631 19.4486
RightArm  -19.089 6.88845 52.9345
RightForeArm  -2.5767 21.999 4.94476
RightHand  -2.92611 9.47829 -22.8878
LeftUpLeg  -12.6295 -1.94589 -2.82447
LeftLeg  45.3718 11.3922 12.3787
LeftFoot  19.6631 -0.0568352 -0.23554
LeftToes  -3.13779e-010 -2.47553e-011 -5.36621e-011
220
root  -0.14798 42.7585 3.52879 -138.726 -89.4269 140.045
RightUpLeg  -5.4673 -0.564 3.47802
RightLeg  12.7834 -2.06436 -1.24106
RightFoot  7.77003 -0.996848 6.20264
RightToes  7.56698e-010 0 -3.6325e-017
Spine  13.4617 1.43798 5.73405
Spine1  0.0916369 3.4509 -7.35361
HEad  -13.2757 -4.52688 2.99973
LeftShoulder1  2.93463 -6.99237 -21.6198
LeftArm  -14.9444 -7.22325 -50.5188
LeftForeArm  8.38348 -8.03065 -10.9201
LeftHand  -1.46455 0.0950832 31.6032
RightShoulder  2.10641 4.78109 18.979
RightArm  -16.8167 7.45081 54.8225
RightForeArm  -1.30913 23.6425 5.28259
RightHand  -2.83648 9.2086 -22.6087
LeftUpLeg  -17.9119 -2.58048 -2.49029
LeftLeg  43.4198 9.1113 9.60595
LeftFoot  15.6619 0.497728 -2.54369
LeftToes  -3.13779e-010 -2.47553e-011 -5.36621e-011
221
root  -0.515451 42.6038 3.14554 -18.597 -85.73 18.556
RightUpLeg  1.76009 0.555052 4.17384
RightLeg  16.6208 -4.74625 -2.55127
RightFoot  4.79574 -0.437947 3.38139
RightToes  7.56698e-010 0 -3.6325e-017
Spine  13.1209 0.879599 5.51653
Spine1  1.53695 3.04064 -7.95012
HEad  -13.7603 -8.06587 5.87492
LeftShoulder1  2.97585 -7.0209 -21.9536
LeftArm  -16.0012 -2.46993 -48.6903
LeftForeArm  3.30683 -11.4361 -8.81744
LeftHand  -1.51028 -0.473557 29.5653
RightShoulder  2.02553 4.4045 19.1854
RightArm  -18.4626 5.68719 55.7421
RightForeArm  3.70691 33.7887 7.26763
RightHand  -2.64705 8.90033 -21.5919
LeftUpLeg  -21.9118 -5.18421 -2.61298
LeftLeg  38.5884 3.53011 3.37983
LeftFoot  13.9166 1.89881 -8.75919
LeftToes  -3.13779e-010 -2.47553e-011 -5.36621e-011
222
root  -1.1189 41.8748 2.78048 0.886292 -81.2777 -1.62787
RightUpLeg  8.84525 -0.635625 6.56101
RightLeg  18.3285 -5.40554 -3.0436
RightFoot  5.94985 -0.0511695 0.633681
RightToes  7.56698e-010 0 -3.6325e-017
Spine  11.398 0.632135 4.8372
Spine1  3.0423 2.43967 -6.55599
HEad  -14.5599 -11.8781 8.40052
LeftShoulder1  2.86056 -6.56033 -22.1121
LeftArm  -7.50283 5.36952 -47.8137
LeftForeArm  -7.42706 -26.5739 -5.69227
LeftHand  -1.5709 -1.29063 27.0997
RightShoulder  2.03669 4.23789 19.9358
RightArm  -21.2874 0.897406 53.8611
RightForeArm  11.6336 52.0782 14.0215
RightHand  -2.2 7.99044 -19.2022
LeftUpLeg  -25.7845 -6.99402 -3.23749
LeftLeg  34.8123 2.16374 1.92401
LeftFoot  15.9666 3.30824 -13.9666
LeftToes  -3.13779e-010 -2.47553e-011 -5.36621e-011
223
root  -1.85063 40.7484 2.46862 5.94737 -78.4722 -6.21838
RightUpLeg  14.4655 -3.19801 8.47699
RightLeg  17.625 -6.99787 -3.54814
RightFoot  7.15015 0.210436 -1.03349
RightToes  7.56698e-010 0 -3.6325e-017
Spine  8.65363 1.5817 4.64929
Spine1  3.97392 3.20895 -6.16912
HEad  -14.9708 -16.4346 11.2195
LeftShoulder1  2.73904 -6.07209 -22.2991
LeftArm  -13.021 13.794 -45.5795
LeftForeArm  1.36293 -45.3966 -11.2326
LeftHand  -1.55798 -2.01236 24.3644
RightShoulder  2.02588 3.98077 20.7584
RightArm  -24.1584 -5.3454 49.826
RightForeArm  31.122 72.2552 36.644
RightHand  -1.58116 6.02992 -16.2948
LeftUpLeg  -29.4412 -5.76459 -4.43251
LeftLeg  34.2297 5.54974 4.42515
LeftFoot  18.3671 3.84133 -14.9021
LeftToes  -3.13779e-010 -2.47553e-011 -5.36621e-011
224
root  -2.42396 39.358 2.29743 12.7954 -78.9755 -12.4843
RightUpLeg  18.0145 -3.85738 8.65432
RightLeg  17.4955 -7.58514 -3.51272
RightFoot  3.67154 0.0723661 -0.23219
RightToes  7.56698e-010 0 -3.6325e-017
Spine  6.74311 3.42794 6.31621
Spine1  4.24473 5.7944 -9.04887
HEad  -15.358 -20.396 14.7152
LeftShoulder1  2.66185 -5.94323 -21.8456
LeftArm  -15.7022 22.3449 -43.0231
LeftForeArm  16.7786 -67.2942 -29.488
LeftHand  -1.30418 -1.94534 20.5889
RightShoulder  1.89002 3.41672 21.0138
RightArm  -27.0821 -10.2301 45.3365
RightForeArm  104.677 78.3089 116.019
RightHand  -1.20753 3.95373 -15.2226
LeftUpLeg  -31.6657 -3.04623 -5.32725
LeftLeg  37.3544 8.73742 7.45073
LeftFoot  15.3581 2.81938 -12.1318
LeftToes  -3.13779e-010 -2.47553e-011 -5.36621e-011
